<svg width="89" height="15" viewBox="0 0 89 15" fill="none" xmlns="http://www.w3.org/2000/svg">
<path fill-rule="evenodd" clip-rule="evenodd" d="M6.16341 0.56543C4.23712 0.969003 2.31392 2.70862 1.37509 4.897C0.790087 6.26087 0.841362 8.85171 1.47985 10.1715C2.62002 12.5286 5.0544 14.1494 7.5489 14.2119C8.30253 14.2308 9.19296 14.1692 9.52712 14.075C10.086 13.9176 10.1349 13.8148 10.1349 12.7951C10.1349 11.5957 10.1099 11.565 9.43054 11.9312C9.1808 12.0658 8.40729 12.176 7.71156 12.176C6.11656 12.176 4.83251 11.5469 3.96484 10.3405C1.87898 7.44042 3.08524 3.67648 6.42 2.67901C7.54138 2.34356 8.94035 2.40321 9.74813 2.82059C10.0909 2.99778 10.1349 2.89605 10.1349 1.92351C10.1349 1.12749 10.0388 0.789366 9.78459 0.6912C9.10655 0.428977 7.14026 0.360861 6.16341 0.56543ZM45.4386 0.651799C43.9146 1.19962 43.1824 2.01767 42.8297 3.56652C42.6193 4.49009 42.6338 4.82643 42.9134 5.50047C43.3393 6.52687 44.6812 7.51811 46.4504 8.11245C48.2445 8.71503 49.2145 9.32963 49.4795 10.0315C49.903 11.1532 48.7855 12.1422 47.0493 12.182C46.0351 12.2052 45.7642 12.0954 44.5 11.1498C44.3303 11.0229 43.9258 11.0688 43.4184 11.2727L42.608 11.5984L43.1125 12.3494C43.6947 13.2158 45.1756 14.0361 46.5258 14.24C50.0601 14.7737 52.8655 11.1788 50.9877 8.5227C50.4396 7.74739 49.1429 6.97853 47.1746 6.26198C45.632 5.70036 44.9018 5.1728 44.8234 4.5631C44.6841 3.48082 44.8448 3.19723 45.8499 2.74936C46.9631 2.2534 48.0551 2.31707 49.0043 2.93345C49.5014 3.25622 49.5661 3.23685 50.2199 2.57039L50.9105 1.86653L50.3914 1.43602C49.7741 0.924261 47.9 0.329696 46.9474 0.343498C46.5746 0.34884 45.8955 0.48752 45.4386 0.651799ZM11.9043 5.28655C11.9049 7.90032 12.0092 10.393 12.1372 10.8576C12.5794 12.4616 14.2684 13.8811 16.1418 14.2233C17.9612 14.5556 20.0589 13.4326 21.0247 11.609C21.4813 10.7469 21.5194 10.3433 21.5887 5.62045L21.6635 0.556303H20.6663H19.6691L19.5984 5.40831C19.5374 9.59141 19.4739 10.3429 19.1378 10.8589C17.968 12.6548 15.5621 12.6548 14.3924 10.8589C14.0562 10.3429 13.9928 9.59141 13.9318 5.40831L13.861 0.556303H12.882H11.9029L11.9043 5.28655ZM23.8373 7.32912V14.1349H24.8318H25.8263V11.2411V8.3473H26.9915H28.1566L29.6603 11.2411L31.1638 14.1349H32.2523C32.8508 14.1349 33.3405 14.0772 33.3405 14.0069C33.3405 13.9366 32.6707 12.5976 31.8518 11.0316L30.3631 8.18435L31.088 7.56998C32.5942 6.29359 33.1195 4.0716 32.2534 2.64117C32.0211 2.25741 31.4578 1.65639 31.0016 1.30557C30.1907 0.682071 30.1008 0.666045 27.0047 0.595481L23.8373 0.523358V7.32912ZM34.6666 7.3456V14.1349H38.0922H41.5178V13.1332V12.1315H39.0867H36.6556V10.2394V8.3473H38.5342H40.4127V7.3456V6.3439H38.5342H36.6556V4.4518V2.5597H39.0867H41.5178V1.558V0.556303H38.0922H34.6666V7.3456ZM58.0932 7.32267V14.1349H60.5159C63.5706 14.1349 64.8385 13.7099 66.3211 12.1898C67.7786 10.6953 68.3463 9.31249 68.3556 7.2343C68.3616 5.91428 68.2557 5.35511 67.8504 4.5631C67.1558 3.20591 65.9438 1.97293 64.6129 1.26907C63.6338 0.751301 63.1991 0.674726 60.8005 0.597706L58.0932 0.510447V7.32267ZM70.2486 7.3456V14.1349H73.6741H77.0997V13.1332V12.1315H74.6687H72.2376V10.2394V8.3473H74.1162H75.9947V7.3456V6.3439H74.1162H72.2376V4.4518V2.5597H74.6687H77.0997V1.558V0.556303H73.6741H70.2486V7.3456ZM78.6468 7.3456V14.1349H79.9379H81.2292L85.0763 7.54304C87.1924 3.91734 88.9567 0.862155 88.9972 0.753749C89.0378 0.64512 88.5777 0.556303 87.9748 0.556303H86.8786L83.8678 5.72685L80.8568 10.8974V5.72685V0.556303H79.7518H78.6468V7.3456ZM25.8263 4.4518V6.3439H27.4949C30.0153 6.3439 30.9965 5.60709 30.5992 4.01283C30.317 2.8798 29.6703 2.5597 27.6631 2.5597H25.8263V4.4518ZM60.0823 7.32134V12.1315H61.3831C65.2123 12.1315 67.5264 8.4626 65.8127 5.10847C65.4755 4.44846 64.8766 3.74505 64.3106 3.34437C63.5134 2.78008 63.1185 2.66544 61.7259 2.59465L60.0823 2.51095V7.32134Z" fill="black"/>
</svg>
